<?xml version="1.0" encoding="iso-8859-1"?>
<!-- Generator: Adobe Illustrator 19.0.0, SVG Export Plug-In . SVG Version: 6.00 Build 0)  -->
<svg version="1.1" id="Capa_1" xmlns="http://www.w3.org/2000/svg" xmlns:xlink="http://www.w3.org/1999/xlink" x="0px" y="0px"
	 viewBox="0 0 512.002 512.002" style="enable-background:new 0 0 512.002 512.002;" xml:space="preserve">
<path style="fill:#E5C691;" d="M355.275,86.265l-13.484,69.58c-1.754,9.023-8.03,16.353-16.384,19.587
	c-1.582,0.618-3.244,1.085-4.968,1.379l-61.094,10.737l-9.175-51.99l43.24-7.594l10.037-51.746
	c2.443-12.612,13.494-21.372,25.873-21.372c1.673,0,3.366,0.152,5.059,0.487C348.695,58.1,358.053,71.959,355.275,86.265z"/>
<path style="fill:#0387D8;" d="M211.803,137.72c-16.449,38.715-15.964,82.535,1.336,120.872l11.797,26.151l98.046-13.234
	l-10.155-59.156l-8.693-52.081l-6.324-37.874"/>
<path style="fill:#027BB7;" d="M234.441,137.72l64.348-11.463l-0.645-3.859l-86.008,15.322
	c-16.448,38.715-15.964,82.535,1.336,120.872l11.797,26.151l21.024-2.838l-10.517-23.313
	C218.477,220.256,217.992,176.435,234.441,137.72z"/>
<path style="fill:#EAEAE4;" d="M364.54,469.951l-23.268,16.465l-3.913-2.433l-22.639-14.032l-33.477-135.104
	c-0.771-3.112-3.305-4.724-5.901-4.816c-2.758-0.101-5.586,1.5-6.407,4.816l-33.477,135.104l-41.04,17.225l-5.039-9.885l-3.741-7.34
	l39.631-185.208l21.007-2.839l76.707-10.392L364.54,469.951z"/>
<path style="fill:#F9DCA2;" d="M393.916,113.674l-13.484,69.58c-1.754,9.023-8.03,16.353-16.384,19.587
	c-1.582,0.618-3.244,1.085-4.968,1.379l-61.094,10.737l-9.175-51.99l43.24-7.594l10.037-51.746
	c2.443-12.612,13.494-21.372,25.873-21.372c1.673,0,3.366,0.152,5.059,0.487C387.336,85.509,396.694,99.369,393.916,113.674z"/>
<path style="fill:#E5C691;" d="M371.45,82.488c-7.097,3.538-12.531,10.219-14.153,18.604l-8.77,45.213
	c-0.762,3.928-3.884,6.969-7.831,7.627l-8.644,1.441l10.037-51.746c2.443-12.612,13.494-21.372,25.873-21.372
	C369.118,82.255,370.284,82.326,371.45,82.488z"/>
<polygon style="fill:#CECECC;" points="246.296,281.905 204.405,477.292 189.38,477.292 185.639,469.951 225.27,284.744 
	246.276,281.905 "/>
<path style="fill:#E5C691;" d="M389.209,92.939c0.236,2.465,0.134,5.002-0.362,7.555l-13.484,69.58
	c-1.754,9.023-8.03,16.353-16.384,19.587c-1.582,0.618-3.244,1.085-4.968,1.379l-58.433,10.269l2.408,13.647l61.094-10.737
	c1.724-0.294,3.386-0.76,4.968-1.379c8.354-3.234,14.63-10.564,16.384-19.587l13.484-69.58
	C395.384,106.113,393.461,98.678,389.209,92.939z"/>
<path style="fill:#CECECC;" d="M337.359,483.983l-22.639-14.032l-33.477-135.104c-0.771-3.112-3.305-4.724-5.901-4.816h9.94
	c5.131,0,9.635,3.411,11.029,8.349L337.359,483.983z"/>
<g>
	<path style="fill:#455256;" d="M153.377,504.399h82.082v-34.444h-48.898c-18.327,0-33.184,14.857-33.184,33.184L153.377,504.399
		L153.377,504.399z"/>
	<path style="fill:#455256;" d="M396.801,504.399h-82.082v-34.444h48.898c18.327,0,33.184,14.857,33.184,33.184L396.801,504.399
		L396.801,504.399z"/>
</g>
<circle style="fill:#F9DCA2;" cx="245.36" cy="76.993" r="69.377"/>
<path style="fill:#E5C691;" d="M221.699,109.714c-18.071-33.785-5.333-75.823,28.452-93.894c4.522-2.418,9.193-4.268,13.934-5.607
	c-16.631-4.666-35.012-3.184-51.446,5.607c-33.785,18.071-46.523,60.108-28.452,93.894c15.653,29.263,49.283,42.719,79.959,34.059
	C246.586,138.845,230.979,127.065,221.699,109.714z"/>
<path style="fill:#AFAFAE;" d="M306.539,44.272l-91.174,48.766l-31.176,16.678c-18.067-33.781-5.333-75.825,28.458-93.891
	c16.171-8.658,34.237-10.24,50.661-5.84c0.01,0,0.03,0.01,0.041,0.01C281.213,14.789,297.13,26.671,306.539,44.272z"/>
<path style="fill:#8E8E8E;" d="M264.089,10.217c-4.745,1.338-9.419,3.183-13.94,5.607C221.762,31,208.227,63.119,215.364,93.037
	l-31.176,16.678c-18.067-33.781-5.333-75.825,28.458-93.891c16.171-8.658,34.237-10.24,50.661-5.84c0.01,0,0.03,0.01,0.041,0.01
	C263.613,10.075,263.856,10.146,264.089,10.217z"/>
<path style="fill:#EAEAE4;" d="M103.335,80.942l-7.654-2.43c-10.127-3.215-15.401-14.347-11.475-24.22l13.397-33.687l37.563,11.925
	l-8.487,35.246C124.191,78.105,113.463,84.157,103.335,80.942z"/>
<path d="M431.139,118.512l-29.146-9.25c0.3-16.2-11.077-30.807-27.518-33.995c-3.906-0.757-7.838-0.827-11.657-0.241
	c-2.433-13.387-12.801-24.403-27.002-27.161c-2.14-0.413-4.328-0.621-6.499-0.621c-4.139,0-8.235,0.779-12.074,2.245
	c-0.247-0.642-0.482-1.288-0.747-1.925l31.545-16.873c3.67-1.963,5.358-6.504,3.506-10.232c-1.917-3.859-6.625-5.346-10.399-3.327
	l-31.824,17.022C298.822,18.409,283.011,7.156,264.3,2.377c-17.111-4.371-35.333-2.678-51.341,4.782
	c-14.637,6.821-26.409,17.709-34.211,31.23l-41.244-13.096c-0.013-0.004-0.025-0.01-0.04-0.014L99.902,13.355
	c-3.806-1.207-7.892,0.73-9.366,4.438l-13.396,33.69c-2.649,6.66-2.408,14.194,0.66,20.671c3.068,6.477,8.746,11.436,15.578,13.606
	l7.655,2.43c2.549,0.809,5.189,1.207,7.823,1.207c4.427,0,8.837-1.128,12.751-3.337c6.242-3.521,10.785-9.537,12.463-16.505
	l6.575-27.306l31.808,10.1c-0.26,0.771-0.528,1.537-0.764,2.32c-5.963,19.679-3.906,40.5,5.792,58.631
	c6.028,11.271,14.564,20.658,24.884,27.584c-3.129,8.312-5.563,16.873-7.26,25.587c-0.834,4.283,2.075,8.4,6.396,9.013h0.001
	c3.988,0.567,7.748-2.073,8.515-6.027c1.408-7.252,3.381-14.386,5.887-21.337c2.32,0.956,4.697,1.806,7.129,2.543
	c7.382,2.238,14.923,3.346,22.423,3.345c12.496,0,24.879-3.077,36.208-9.137c3.903-2.089,7.566-4.493,10.994-7.152l2.733,16.368
	l-32.103,5.641c-3.809,0.669-6.721,4.004-6.532,7.866c0.228,4.671,4.46,7.938,8.915,7.156l16.971-2.982l6.533,37.016l-17.582,3.09
	c-10.012,1.757-19.75-4.921-21.697-14.897c-0.806-4.121-4.797-6.807-8.921-6.005c-4.121,0.805-6.811,4.798-6.006,8.921
	c3.147,16.106,17.504,27.468,33.433,27.468c1.923,0,3.872-0.166,5.823-0.509l32.397-5.694l7.531,43.87l-84.619,11.421l-9.466-20.984
	c-7.259-16.085-11.428-33.066-12.426-50.577c-0.229-4.023-3.61-7.14-7.639-7.11l0,0c-4.352,0.033-7.789,3.708-7.54,8.053
	c1.11,19.35,5.721,38.115,13.743,55.889l10.996,24.376l-37.851,176.906c-19.062,3.416-33.579,20.107-33.579,40.137v1.26
	c0,4.199,3.404,7.604,7.604,7.604h82.083c4.199,0,7.604-3.404,7.604-7.604v-33.514l32.025-129.265l32.026,129.265v33.514
	c0,4.199,3.404,7.604,7.604,7.604h82.082c4.199,0,7.604-3.404,7.604-7.604v-1.26c0-20.021-14.503-36.706-33.553-40.132
	l-22.459-107.252c-0.861-4.11-4.891-6.745-9.001-5.884l0,0c-4.11,0.861-6.745,4.891-5.884,9.001l21.669,103.479h-34.51
	l-32.042-129.335c-1.57-6.335-7.01-10.592-13.537-10.592c-6.527,0-11.966,4.257-13.537,10.592L229.51,462.351h-34.467
	l36.552-170.835l85.395-11.526l8.713,41.612c0.861,4.11,4.891,6.745,9.001,5.884l0.129-0.027c4.059-0.85,6.689-4.797,5.91-8.871
	l-19.14-100.062l38.8-6.819c2.183-0.383,4.334-0.982,6.395-1.78c10.972-4.248,18.86-13.683,21.1-25.236l11.68-60.242l27.214,8.637
	c0.765,0.243,1.54,0.359,2.302,0.359c3.373,0,6.494-2.264,7.375-5.762C437.46,123.744,435.011,119.741,431.139,118.512z
	 M119.286,65.996c-0.703,2.921-2.532,5.343-5.149,6.819c-2.617,1.477-5.638,1.788-8.5,0.88l-7.655-2.43
	c-2.864-0.909-5.149-2.906-6.437-5.622c-1.287-2.715-1.383-5.748-0.274-8.541l10.78-27.107l24.063,7.64L119.286,65.996z
	 M363.618,477.558c11.917,0,21.955,8.19,24.783,19.237h-66.079v-19.237H363.618z M227.857,477.558v19.237h-66.08
	c2.829-11.047,12.868-19.237,24.784-19.237H227.857z M329.319,62.452c1.208,0,2.428,0.117,3.612,0.345
	c8.974,1.743,15.163,9.459,15.201,18.272c-3.273,2.355-6.056,5.218-8.266,8.471l-17.824-5.659
	c0.603-6.562,0.344-13.136-0.743-19.594C323.797,63.096,326.539,62.452,329.319,62.452z M216.225,22.525
	c9.093-4.863,19.028-7.332,29.055-7.332c6.018,0,12.071,0.889,17.993,2.684c13.337,4.041,24.657,12.279,32.546,23.503l-63.7,34.073
	c-0.001,0-0.001,0.001-0.002,0.001c-0.001,0-0.001,0.001-0.002,0.001l-44.386,23.741c-4.958-12.793-5.525-26.779-1.483-40.118
	C191.028,43.288,201.675,30.307,216.225,22.525z M274.494,131.461c-14.55,7.781-31.26,9.432-47.048,4.647
	c-13.337-4.041-24.657-12.279-32.546-23.503l37.683-20.157l5.059,9.457c1.371,2.561,3.996,4.019,6.712,4.019
	c1.21,0,2.437-0.29,3.579-0.9c3.704-1.981,5.1-6.589,3.119-10.291l-5.059-9.457l21.152-11.313l5.058,9.457
	c1.371,2.562,3.996,4.019,6.712,4.019c1.21,0,2.437-0.29,3.579-0.9c3.703-1.981,5.1-6.588,3.119-10.29l-5.059-9.458l22.437-12.001
	c4.958,12.793,5.525,26.78,1.484,40.118C299.69,110.696,289.042,123.678,274.494,131.461z M305.886,124.586
	c5.841-7.432,10.32-15.951,13.143-25.269c0.041-0.134,0.071-0.269,0.112-0.401l15.181,4.82l-8.733,45.047l-15.216,2.673
	L305.886,124.586z M372.965,181.798c-1.238,6.386-5.597,11.601-11.66,13.949c-1.138,0.44-2.328,0.772-3.535,0.983l-53.616,9.423
	l-6.533-37.016l35.752-6.283c3.104-0.545,5.55-2.948,6.149-6.041l10.032-51.741c0.955-4.928,3.773-9.189,7.933-11.999
	c4.16-2.809,9.166-3.83,14.093-2.874c10.174,1.972,16.846,11.854,14.874,22.028L372.965,181.798z"/>
<g>
</g>
<g>
</g>
<g>
</g>
<g>
</g>
<g>
</g>
<g>
</g>
<g>
</g>
<g>
</g>
<g>
</g>
<g>
</g>
<g>
</g>
<g>
</g>
<g>
</g>
<g>
</g>
<g>
</g>
</svg>
